<svg width="28" height="28" viewBox="0 0 28 28" fill="none" xmlns="http://www.w3.org/2000/svg">
<g id="Arrows/chevron-up">
<path id="Vector" d="M14.8777 9.91979L21.4694 16.5231C21.5787 16.6316 21.6655 16.7606 21.7247 16.9028C21.784 17.0449 21.8145 17.1974 21.8145 17.3515C21.8145 17.5055 21.784 17.658 21.7247 17.8001C21.6655 17.9423 21.5787 18.0713 21.4694 18.1798C21.2508 18.3971 20.9551 18.519 20.6469 18.519C20.3386 18.519 20.0429 18.3971 19.8244 18.1798L13.991 12.4048L8.21602 18.1798C7.99743 18.3971 7.70174 18.519 7.39352 18.519C7.08531 18.519 6.78961 18.3971 6.57102 18.1798C6.46079 18.0717 6.37309 17.9429 6.31301 17.8007C6.25293 17.6585 6.22166 17.5058 6.22102 17.3515C6.22166 17.1971 6.25293 17.0444 6.31301 16.9022C6.37309 16.76 6.46079 16.6312 6.57102 16.5231L13.1627 9.91979C13.2719 9.80136 13.4045 9.70685 13.5521 9.64221C13.6997 9.57757 13.8591 9.5442 14.0202 9.5442C14.1813 9.5442 14.3407 9.57757 14.4883 9.64221C14.6358 9.70685 14.7684 9.80136 14.8777 9.91979Z" fill="#1B1B1B"/>
</g>
</svg>
